<?xml version="1.0" encoding="UTF-8" standalone="no"?>
<!-- Created with Inkscape (http://www.inkscape.org/) -->

<svg
   width="32"
   height="32"
   viewBox="0 0 8.4666664 8.4666669"
   version="1.1"
   id="svg5"
   inkscape:version="1.1.1 (1:1.1+202109281949+c3084ef5ed)"
   sodipodi:docname="posts.svg"
   xmlns:inkscape="http://www.inkscape.org/namespaces/inkscape"
   xmlns:sodipodi="http://sodipodi.sourceforge.net/DTD/sodipodi-0.dtd"
   xmlns="http://www.w3.org/2000/svg"
   xmlns:svg="http://www.w3.org/2000/svg">
  <sodipodi:namedview
     id="namedview7"
     pagecolor="#ffffff"
     bordercolor="#666666"
     borderopacity="1.0"
     inkscape:pageshadow="2"
     inkscape:pageopacity="0.0"
     inkscape:pagecheckerboard="0"
     inkscape:document-units="mm"
     showgrid="false"
     units="px"
     inkscape:zoom="5.6568543"
     inkscape:cx="-17.942835"
     inkscape:cy="31.731417"
     inkscape:window-width="1920"
     inkscape:window-height="1011"
     inkscape:window-x="0"
     inkscape:window-y="0"
     inkscape:window-maximized="1"
     inkscape:current-layer="layer1"
     showguides="true"
     inkscape:guide-bbox="true"
     inkscape:snap-bbox="true" />
  <defs
     id="defs2" />
  <g
     inkscape:label="Layer 1"
     inkscape:groupmode="layer"
     id="layer1">
    <g
       id="g4227"
       transform="translate(-0.39159715,0.39579559)">
      <path
         id="rect867"
         style="fill:#000000;fill-opacity:0.999892;stroke-width:5.61441;stroke-linejoin:round;paint-order:stroke fill markers"
         d="m 10.082031,5.2441406 c -2.7685277,0 -4.9960935,2.2275659 -4.9960935,4.9960934 v 11.519532 c 0,2.768528 2.2275658,4.996093 4.9960935,4.996093 h 11.835938 c 2.768528,0 4.996093,-2.227565 4.996093,-4.996093 v -8.306641 l -1.916015,1.695313 v 5.599609 c 0,2.282398 -1.836743,4.119141 -4.119141,4.119141 h -9.757812 c -2.2823984,0 -4.1191409,-1.836743 -4.1191409,-4.119141 v -9.496094 c 0,-2.2823976 1.8367425,-4.1191405 4.1191409,-4.1191405 h 5.980468 l 2.136719,-1.8886719 z"
         transform="scale(0.26458333)" />
      <g
         id="g4221"
         transform="matrix(0.51579466,0.51579466,-0.51579466,0.51579466,13.061167,7.2458061)">
        <path
           id="rect3068"
           style="fill:#000000;fill-opacity:0.999892;stroke-width:3.77953;stroke-linejoin:round;paint-order:stroke fill markers"
           d="m -44.609375,-2.5058594 c -2.149789,0 -3.880859,1.73107036 -3.880859,3.8808594 v 3.5800781 h 10.464843 V 1.375 c 0,-2.14978904 -1.73107,-3.8808594 -3.880859,-3.8808594 z"
           transform="scale(0.26458333)" />
        <path
           id="rect3392"
           style="fill-opacity:0.999892;stroke-width:0.918534;stroke-linejoin:round;paint-order:stroke fill markers"
           d="m -12.829707,1.8345671 h 2.768864 v 5.2705621 l -1.478785,1.769636 -1.290079,-1.769636 z"
           sodipodi:nodetypes="cccccc" />
      </g>
    </g>
  </g>
</svg>
