<?xml version="1.0" encoding="UTF-8" standalone="no"?>
<!-- Created with Inkscape (http://www.inkscape.org/) -->

<svg
   width="32"
   height="32"
   viewBox="0 0 8.4666664 8.4666669"
   version="1.1"
   id="svg5"
   inkscape:version="1.1.1 (1:1.1+202109281949+c3084ef5ed)"
   sodipodi:docname="search.svg"
   xmlns:inkscape="http://www.inkscape.org/namespaces/inkscape"
   xmlns:sodipodi="http://sodipodi.sourceforge.net/DTD/sodipodi-0.dtd"
   xmlns="http://www.w3.org/2000/svg"
   xmlns:svg="http://www.w3.org/2000/svg">
  <sodipodi:namedview
     id="namedview7"
     pagecolor="#ffffff"
     bordercolor="#666666"
     borderopacity="1.0"
     inkscape:pageshadow="2"
     inkscape:pageopacity="0.0"
     inkscape:pagecheckerboard="0"
     inkscape:document-units="mm"
     showgrid="false"
     units="px"
     inkscape:zoom="10.5625"
     inkscape:cx="25.372781"
     inkscape:cy="14.911243"
     inkscape:window-width="1920"
     inkscape:window-height="1011"
     inkscape:window-x="0"
     inkscape:window-y="0"
     inkscape:window-maximized="1"
     inkscape:current-layer="layer1" />
  <defs
     id="defs2" />
  <g
     inkscape:label="Layer 1"
     inkscape:groupmode="layer"
     id="layer1">
    <g
       id="g930"
       transform="matrix(0.94882713,0,0,0.91722837,0.39225787,0.19620562)">
      <path
         id="path843"
         style="fill:#000000;fill-opacity:0.999892;stroke-width:1.84697;stroke-linecap:round;paint-order:markers fill stroke"
         d="M 0.14429274,3.1136081 A 2.7179707,2.7500769 0 0 0 2.8618318,5.8632483 2.7179707,2.7500769 0 0 0 5.5803198,3.1136081 2.7179707,2.7500769 0 0 0 2.8618318,0.36300784 2.7179707,2.7500769 0 0 0 0.14429274,3.1136081 Z m 1.09403716,0 A 1.6238473,1.6430291 0 0 1 2.8618318,1.4699685 1.6238473,1.6430291 0 0 1 4.4862822,3.1136081 1.6238473,1.6430291 0 0 1 2.8618318,4.7562878 1.6238473,1.6430291 0 0 1 1.2383299,3.1136081 Z" />
      <rect
         style="fill:#000000;fill-opacity:0.999892;stroke-width:0.976889;stroke-linecap:round;paint-order:markers fill stroke"
         id="rect998"
         width="4.2992754"
         height="1.3740031"
         x="-10.902506"
         y="-0.96381354"
         transform="matrix(-0.70294281,-0.71124638,0.70294281,-0.71124638,0,0)" />
    </g>
  </g>
</svg>
