<?xml version="1.0" encoding="UTF-8" standalone="no"?>
<!-- Created with Inkscape (http://www.inkscape.org/) -->

<svg
   width="32"
   height="32"
   viewBox="0 0 8.4666664 8.4666669"
   version="1.1"
   id="svg5"
   inkscape:version="1.1.1 (1:1.1+202109281949+c3084ef5ed)"
   sodipodi:docname="users.svg"
   xmlns:inkscape="http://www.inkscape.org/namespaces/inkscape"
   xmlns:sodipodi="http://sodipodi.sourceforge.net/DTD/sodipodi-0.dtd"
   xmlns="http://www.w3.org/2000/svg"
   xmlns:svg="http://www.w3.org/2000/svg">
  <sodipodi:namedview
     id="namedview7"
     pagecolor="#ffffff"
     bordercolor="#666666"
     borderopacity="1.0"
     inkscape:pageshadow="2"
     inkscape:pageopacity="0.0"
     inkscape:pagecheckerboard="0"
     inkscape:document-units="mm"
     showgrid="false"
     units="px"
     inkscape:snap-bbox="false"
     inkscape:bbox-paths="false"
     inkscape:snap-bbox-edge-midpoints="false"
     inkscape:bbox-nodes="false"
     inkscape:snap-bbox-midpoints="false"
     inkscape:snap-global="true"
     inkscape:zoom="7.4688154"
     inkscape:cx="16.93709"
     inkscape:cy="3.5480861"
     inkscape:window-width="1920"
     inkscape:window-height="1011"
     inkscape:window-x="0"
     inkscape:window-y="0"
     inkscape:window-maximized="1"
     inkscape:current-layer="g2950" />
  <defs
     id="defs2" />
  <g
     inkscape:label="Layer 1"
     inkscape:groupmode="layer"
     id="layer1">
    <g
       id="g2950"
       transform="matrix(0.81368067,0,0,0.81368067,0.726531,1.2337016)">
      <path
         id="ellipse1495"
         style="fill:#000000;fill-opacity:0.999892;stroke-width:48.892;paint-order:markers fill stroke"
         d="m 12.8125,12.759766 c -4.4441381,0.875776 -7.6614897,3.382515 -7.640625,6.339843 0.059368,8.420683 4.977408,7.457032 11.117187,7.457032 6.13978,0 11.122857,1.11225 11.117188,-7.457032 -0.0019,-2.821462 -2.917489,-5.234655 -7.039062,-6.210937 l -0.792969,1.375 -2.947266,5.103516 -2.945312,-5.103516 z"
         transform="scale(0.26458333)" />
      <path
         id="path2746"
         style="fill:#1a1a1a;fill-opacity:0.999892;stroke-width:11.7829;paint-order:markers fill stroke"
         d="M 5.8965486,1.8595399 A 1.5254887,1.5254887 0 0 1 4.3710599,3.3850286 1.5254887,1.5254887 0 0 1 2.8455712,1.8595399 1.5254887,1.5254887 0 0 1 4.3710599,0.33405113 1.5254887,1.5254887 0 0 1 5.8965486,1.8595399 Z" />
    </g>
  </g>
</svg>
